<?xml version="1.0" standalone="no"?>
<!DOCTYPE svg PUBLIC "-//W3C//DTD SVG 20010904//EN"
 "http://www.w3.org/TR/2001/REC-SVG-20010904/DTD/svg10.dtd">
<svg version="1.0" xmlns="http://www.w3.org/2000/svg"
 width="256.000000pt" height="256.000000pt" viewBox="0 0 256.000000 256.000000"
 preserveAspectRatio="xMidYMid meet">
<metadata>
Created by potrace 1.14, written by Peter Selinger 2001-2017
</metadata>
<g transform="translate(0.000000,256.000000) scale(0.100000,-0.100000)"
fill="#000000" stroke="none">
<path d="M1185 2554 c-213 -46 -361 -154 -454 -333 -61 -118 -73 -198 -69
-458 2 -171 6 -223 18 -243 26 -44 81 -90 122 -102 28 -8 43 -20 49 -37 19
-49 51 -112 66 -126 16 -17 14 -17 -117 -15 -88 1 -132 -16 -161 -64 -15 -25
-19 -50 -19 -128 l0 -96 -52 -18 c-107 -34 -164 -78 -206 -158 l-27 -51 -3
-362 -3 -363 950 0 951 0 0 334 c0 213 -4 352 -11 383 -23 99 -99 175 -213
213 l-66 22 0 96 c0 87 -3 101 -25 134 -26 39 -78 61 -133 58 -15 -1 -55 -2
-90 -1 l-63 1 25 32 c13 18 33 55 43 82 15 40 24 50 54 60 60 21 100 56 125
110 23 49 24 59 23 261 0 116 -5 235 -11 265 -41 226 -212 416 -434 485 -47
15 -228 27 -269 19z"/>
</g>
</svg>
